<svg xmlns="http://www.w3.org/2000/svg" viewBox="0 0 500 500"><defs><style>.cls-1{fill:#633f7a;}.cls-2{fill:#fff;}.cls-3{font-size:23.53px;font-family:DFLiHei-Md-WIN-BF, DFLiHei-Md;letter-spacing:0.34em;}.cls-3,.cls-6{fill:#d1c284;}.cls-4{letter-spacing:0.38em;}.cls-5{letter-spacing:0.36em;}.cls-7{fill:#ccbe83;}</style></defs><title>logo</title><g id="logo_500"><path class="cls-1" d="M423.51,167.33c-1.57,6,2.5,8.72,7.55,11.34,43.2,22.41,54.49,80.91,22.33,117-5.47,6.14-12.67,10.79-19.31,15.82-4.11,3.12-6.4,6.13-4.82,11.85,2.11,7.63-1.19,12.13-9.05,13.09a102.31,102.31,0,0,1-16.42.54c-11.74-.52-20,4.59-25.53,14.7-2.52,4.57-5.28,9-8.2,13.34-11.52,17.06-37.87,28.1-56.36,17.38-4.93-2.86-9.84-1.42-13,3.47-16.35,25.43-68.13,29.25-91.53,9.4a73.16,73.16,0,0,1-9.14-9.56c-3.65-4.47-7.82-5.56-13.18-3.55-22.94,8.62-44.26,1.61-57.72-18.88a12,12,0,0,1-1.24-2c-7.78-19.65-21.41-27.94-43-25-12.49,1.73-15.2-2.56-13.44-15,.87-6.19-3-9.22-7.43-11.64-18.19-10-27.84-26.16-33.14-45.5-8.94-32.67,8-70.36,38.46-85.22,6.13-3,9.59-6.31,7.78-13.91-1.73-7.23,2.29-11.57,9.83-11.35,4.92.15,9.81,1.33,14.73,1.9,11,1.26,20.11-2.11,26.86-11.06,3.78-5,7.29-10.2,11.08-15.2,13.5-17.82,35.78-23.49,55.64-13.84,7.06,3.43,12.31,1.9,17.43-3.57,16.21-17.32,41-21.9,62.11-11,4.92,2.53,9,7,13,11,4.87,4.91,9.68,7.37,16.67,4.06,18.95-9,35.66-6.43,50.94,8a86.59,86.59,0,0,1,13.44,16.21c8.56,13.46,20.39,17.87,35.62,14.8a45.14,45.14,0,0,1,10.06-1.21C421.78,153.85,424,157.36,423.51,167.33Z"/><path class="cls-2" d="M76.43,222.77h.21a3.31,3.31,0,0,1,2.56,1.78,3.59,3.59,0,0,1,.54,1.36.77.77,0,0,1-.54.67,15.89,15.89,0,0,1-2.77.31A7.21,7.21,0,0,1,71.57,225a5.53,5.53,0,0,1-1.77-3.81,3.73,3.73,0,0,1,.06-.8q.75-4.62,7.31-11.14A47.12,47.12,0,0,1,91.7,199.08a16.38,16.38,0,0,1,6.3-1.53,7.23,7.23,0,0,1,2.89.55,9.64,9.64,0,0,1,3.25,2.58,16.22,16.22,0,0,1,3.37,10.52q-.06,8.37-5.72,21.84,7.59-11.31,13.84-12.92a8.37,8.37,0,0,1,2.19-.3,9.67,9.67,0,0,1,5.92,2.21q5,4.13,8.12,14,3.79-2.28,11.27-17.91c1.14-2.37,2.88-6.13,5.23-11.25q8-17.42,11.43-23.07a20,20,0,0,1,4.54-5.54,2.51,2.51,0,0,1,1.5-.49c1.14.08,2.15,1,3,2.7a5.7,5.7,0,0,1,.37,2.4q0,7.14-7.74,35.5c-.35,1.27-.6,2.2-.75,2.77q-6.3,23.75-6.89,26.15-3.09,12.66-4.48,21.77a59.5,59.5,0,0,0-.64,7.38,2.54,2.54,0,0,0,.16,1.17c.1.17.2.33.29.5a2.33,2.33,0,0,1,.21.49,1.23,1.23,0,0,1,.08.43.75.75,0,0,1,0,.31.67.67,0,0,1-.19.24.41.41,0,0,1-.29.13h-.32q-2.08,0-3.2-3.7A11.07,11.07,0,0,1,145,273q0-8.37,7.47-37.28,1.23-4.74,4.06-14.89,6.51-23.62,8.44-34.27c.14-.74.27-1.43.37-2.09q-3.09,4.31-11.32,21.72-9.08,19.26-12.66,25.47-4.26,7.38-6.73,8.36a4.31,4.31,0,0,1-1.65.37q-2.94,0-4.54-5.23a.16.16,0,0,1,0-.12q-2.57-8.37-5.34-10.58a4.45,4.45,0,0,0-2.78-1q-5,0-12.23,9.29l-1.44,1.9Q98.48,246,90.63,264.85c-.71,1.76-1.1,2.77-1.17,3l-.91.06q-4.27-.3-4.43-4.55a11.13,11.13,0,0,1,.21-2.21q.92-4.56,6.89-16.86,6.94-14.2,9.08-19.56,3.84-9.78,3.84-15.75a12,12,0,0,0-2.24-7.45,3.65,3.65,0,0,0-2-.55q-4.53,0-13,6.46A51.51,51.51,0,0,0,75.57,219,12.53,12.53,0,0,0,73.7,223,16.73,16.73,0,0,0,76.43,222.77Z"/><path class="cls-2" d="M170.15,228.43a2.38,2.38,0,0,0-.05-.37v-.31a5.1,5.1,0,0,1,3.52-5.1,7.87,7.87,0,0,1,3.1-.62,7.7,7.7,0,0,1,5.93,2.4,9.26,9.26,0,0,1,2.19,6.4,13.71,13.71,0,0,1-.91,4.8,22.49,22.49,0,0,0,10.63-5.6.68.68,0,0,1,.48-.19c.75,0,1.49.58,2.24,1.73a3.14,3.14,0,0,1,.59,1.41.83.83,0,0,1-.27.55q-6.61,6.16-13.88,6.16a13.39,13.39,0,0,1-1.5-.06q-4.8,9-11.27,9a6.74,6.74,0,0,1-4.43-1.36,1.37,1.37,0,0,0-.16-.24,7.27,7.27,0,0,1-2.72-5.85q0-4.86,4.38-10.39A19.83,19.83,0,0,1,170.15,228.43Zm2,5a21.43,21.43,0,0,0-4.59,8.68c-.08.45-.13.86-.16,1.23a7.62,7.62,0,0,0,0,1.41,3.36,3.36,0,0,0,1.54.37q3.32,0,7.21-5c.5-.66,1-1.31,1.39-2A15.53,15.53,0,0,1,172.13,233.47Zm2.46-5.47a3.91,3.91,0,0,1,1.28,1.9q0,.43-1,1a4.52,4.52,0,0,0-.8.49c.57,2.18,2.21,3.61,4.91,4.31a18.27,18.27,0,0,0,2.14-7.75,4.51,4.51,0,0,0-.37-2,.82.82,0,0,0-.64-.19A8.36,8.36,0,0,0,175.6,227,3.81,3.81,0,0,0,174.59,228Z"/><path class="cls-2" d="M195.73,228.43a1.57,1.57,0,0,0,0-.37v-.31a5.1,5.1,0,0,1,3.52-5.1,7.87,7.87,0,0,1,3.1-.62,7.69,7.69,0,0,1,5.93,2.4,9.26,9.26,0,0,1,2.19,6.4,13.71,13.71,0,0,1-.91,4.8,22.49,22.49,0,0,0,10.63-5.6.68.68,0,0,1,.48-.19c.75,0,1.5.58,2.24,1.73a3,3,0,0,1,.59,1.41.79.79,0,0,1-.27.55q-6.62,6.16-13.88,6.16a13.39,13.39,0,0,1-1.5-.06q-4.8,9-11.27,9a6.74,6.74,0,0,1-4.43-1.36,1.37,1.37,0,0,0-.16-.24,7.3,7.3,0,0,1-2.72-5.85q0-4.86,4.38-10.39A19.83,19.83,0,0,1,195.73,228.43Zm2,5a21.43,21.43,0,0,0-4.59,8.68c-.08.45-.13.86-.16,1.23a7.62,7.62,0,0,0,0,1.41,3.37,3.37,0,0,0,1.55.37c2.2,0,4.61-1.66,7.2-5,.5-.66,1-1.31,1.39-2A15.53,15.53,0,0,1,197.71,233.47Zm2.46-5.47a3.91,3.91,0,0,1,1.28,1.9q0,.43-1,1a4.52,4.52,0,0,0-.8.49c.57,2.18,2.21,3.61,4.92,4.31a18.39,18.39,0,0,0,2.13-7.75,4.51,4.51,0,0,0-.37-2,.82.82,0,0,0-.64-.19,8.36,8.36,0,0,0-4.49,1.29A3.81,3.81,0,0,0,200.17,228Z"/><path class="cls-2" d="M239.85,225.29a1.93,1.93,0,0,0-.22-.18.75.75,0,0,1-.16-.13c-.14.33-.43,1-.85,1.85q-6.09,13-10.31,17.16c-1.64,1.6-3.13,2.4-4.49,2.4a4.11,4.11,0,0,1-2.45-.92c-2-1.85-3-4.64-3.05-8.37a20.07,20.07,0,0,1,1-6.09q2.5-7.62,7.48-10.52a9.69,9.69,0,0,1,4.91-1.35,11.1,11.1,0,0,1,4.8,1.17q7.86-16.31,16.35-38.14l.1-.19a.88.88,0,0,1,.64-.43,3.6,3.6,0,0,1,2.51,1.48c.57.65.79,1.21.65,1.66q-8.23,23.63-15.55,49.21-7.47,26.28-7.47,34.15a5.09,5.09,0,0,0,.1.92,6.64,6.64,0,0,1,.06.74.68.68,0,0,1-.64.61,3.5,3.5,0,0,1-2.51-1.47,3.08,3.08,0,0,1-.7-1.42,13.15,13.15,0,0,1-.1-2q0-8.29,8.65-36.29Zm-4.65-2.21a5.09,5.09,0,0,0-1-.13q-4.65,0-8.65,6.22a23,23,0,0,0-3.79,10.27q-.06.62-.06,1.11a6.83,6.83,0,0,0,.32,2.21Q226.13,241.35,235.2,223.08Z"/><path class="cls-2" d="M329,268.83c-.6.08-1.21.14-1.81.17a13.32,13.32,0,0,1-10.57-5.07,18.91,18.91,0,0,1-3.89-8.94q-1.41-8.13,2.11-19.18a88.51,88.51,0,0,1,6.89-15.75,85.52,85.52,0,0,1,9.35-13.69,39.92,39.92,0,0,1,9.85-8.81,12.55,12.55,0,0,1,4.43-1.65,7.18,7.18,0,0,1,4.09.56,1.41,1.41,0,0,0,.83.29,8.44,8.44,0,0,0,1.87-1,17.66,17.66,0,0,1,6.12-2.29,8,8,0,0,1,5.37,1c2.94,1.76,4.83,5.12,5.7,10.08,0,.1.24,1.48.66,4.12s-.31,7.69-2.23,15.13a76,76,0,0,1-10.1,21.61,73.65,73.65,0,0,1-15.08,16.81Q335.4,267.92,329,268.83Zm-.69-6.22a14.09,14.09,0,0,0,2-.44q6.51-2.24,13.12-9A74,74,0,0,0,355,237.24a65.59,65.59,0,0,0,7-18.45q1.67-8.88.88-13.42a8.1,8.1,0,0,0-.91-2.72,3.43,3.43,0,0,0-3.65-1.93q-1.75.24-5.65,3.18t-11,15.15q-8.87,15.63-7.75,22a4.59,4.59,0,0,0,1.43,2.72,3.53,3.53,0,0,1,1.25,1.76c.12.66-.22,1.05-1,1.16a4.8,4.8,0,0,1-1.94-.26q-3.85-1.41-4.65-6-.13-.7-.39-4t3.05-11.84a86.88,86.88,0,0,1,10-18.18,14.76,14.76,0,0,0,1.65-2.52,24.51,24.51,0,0,0-3.44,2.9,73,73,0,0,0-11.19,14.83,87.21,87.21,0,0,0-8.09,17.81q-2.59,8.82-1.5,15.14a10.79,10.79,0,0,0,3.23,6.51A7,7,0,0,0,328.29,262.61Z"/><path class="cls-2" d="M391.65,210.26a135.75,135.75,0,0,1-10.22,10.3,4.53,4.53,0,0,1-1.87,1c-2.74.65-2.53-2.26-1.46-3.77,1.85-2.58,4.24-4.49,6.35-6.81q4.49-4.9,9.24-9.56c2.57-2.52,5.15-5.16,7.94-7.45,2.2-1.8,5.11-3,6.42-5.72a31.16,31.16,0,0,1,1.39-3.12,3.09,3.09,0,0,1,2.8-1.62,2.62,2.62,0,0,1,2,2.22,8,8,0,0,1-.33,3.21,31.67,31.67,0,0,1,7.69-.58,10.26,10.26,0,0,1,6.79,3c2.65,3,2.49,7.56,1.44,11.48-1.87,7-6,13.2-10.25,19.13-5.42,7.54-11.2,14.9-18.2,21-3.31,2.89-6.92,5.55-9.42,9.14-4.63,6.65-4.67,15.18-5.66,23.12a1.47,1.47,0,0,1-.21.71,1,1,0,0,1-1.54,0,2.66,2.66,0,0,1-.59-1.6,32.43,32.43,0,0,1,.41-10.89c.67-3.22,1.83-8.25,1.17-11.43a3.4,3.4,0,0,1,.79-3.71,19.58,19.58,0,0,0,3.34-7.11q2.61-10.15,5.76-20.19,1.57-5,3.28-10c.56-1.62,1.12-3.23,1.7-4.84s1.84-4.11,2-5.84a13.79,13.79,0,0,0-3.2,2.4c-.77.71-1.35,1.38-2.16,2.06A60.14,60.14,0,0,0,391.65,210.26Zm2.7,31.81c2.46-.06,5.87-4.78,7.5-6.38,9.32-9.19,18-19.62,22.5-32.1a10.44,10.44,0,0,0,.8-5.49c-1.3-6.55-11.83-3.73-15.19-.7q-.88.81-4.49,10.63t-8.05,23.53q-3,9.44-3.36,10.37A.26.26,0,0,0,394.35,242.07Z"/><path class="cls-2" d="M393.55,246.72q-7.05,28.48-6.7,36.86a4.72,4.72,0,0,0,.16,1q.08.52.09.78a.77.77,0,0,1-.68.7,3.75,3.75,0,0,1-2.81-1.39,3.17,3.17,0,0,1-.82-1.45,12.89,12.89,0,0,1-.2-2.09q-.36-8.84,7.89-39.23Z"/><path class="cls-2" d="M271.82,269.09a1,1,0,0,1-.52-.17q-1.47-.93-1.32-5.06a70.41,70.41,0,0,1,2.47-13.74.26.26,0,0,1,0-.14,11.5,11.5,0,0,0,.42-2,.61.61,0,0,0-.35-.56,1.2,1.2,0,0,1-.52-.61,1.84,1.84,0,0,1-.14-.79c0-.82.34-1.3,1-1.44a2.21,2.21,0,0,0,1.45-1.37l.28-1.07q6.23-21.07,14.38-41.44a8.84,8.84,0,0,0,.85-2.33c0-.07,0-.1-.1-.1a3.88,3.88,0,0,0-1.28.54,54.26,54.26,0,0,0-13,9.93A40.27,40.27,0,0,0,267.05,221a7.09,7.09,0,0,0-.43,1.36c0,.16.17.35.51.56a2.38,2.38,0,0,1,1.08,2,5.42,5.42,0,0,1-.38,1.36c-.24.65-1,1-2.33,1.19h-.24c-2.12-.07-3.12-1.57-3-4.49a21.41,21.41,0,0,1,2.6-8.36,50.45,50.45,0,0,1,10.94-13.86,57.53,57.53,0,0,1,15.59-10A18.4,18.4,0,0,0,294,189.4c.08-.11.5-.91,1.25-2.39a23.47,23.47,0,0,1,2.46-4,2.53,2.53,0,0,1,1.87-1.09,2.28,2.28,0,0,1,2,1.65,4.34,4.34,0,0,1,.25,1.63,4.76,4.76,0,0,1-.37,1.66,3.4,3.4,0,0,0-.16.49q0,.15.21.15a2.62,2.62,0,0,0,.63-.07,14.65,14.65,0,0,1,4.41-.33,15.25,15.25,0,0,1,6.22,1.66,7.5,7.5,0,0,1,4,5.65,10.33,10.33,0,0,1,.17,2.23q-.1,2.9-3.11,9.84a47.56,47.56,0,0,1-7.44,12.15q-16.2,19.62-27.6,26.43c-.7.7-1.57,2.57-2.61,5.64a90.87,90.87,0,0,0-2.64,9.42,31.54,31.54,0,0,0-.89,5.43,5.53,5.53,0,0,0,.08,1.2,4.5,4.5,0,0,1,.09,1C272.67,268.68,272.37,269.11,271.82,269.09Zm9.23-32.32q1.81.06,15.39-13.7t15.42-26.39a1.52,1.52,0,0,0-.12-.69q-1-1.86-6-2.05a21.61,21.61,0,0,0-8.49,1.26c-.58.47-2.11,3.76-4.59,9.84s-5.27,13.4-8.36,21.91q-3.1,8.79-3.52,9.66A.28.28,0,0,0,281.05,236.77Z"/><path class="cls-2" d="M278.47,244.09q-7.56,33.12-7.5,43a8.08,8.08,0,0,0,.11,1.16c0,.42.06.72.06.93-.07.47-.29.73-.65.78q-1.28,0-2.61-1.86a4.34,4.34,0,0,1-.73-1.78,19.88,19.88,0,0,1-.12-2.48q-.06-10.47,8.7-45.75Z"/><path class="cls-2" d="M328.6,241.94c5.26,10.93,17.64,4.56,25.26.18,5.6-3.21,11.35-6.2,16.47-10.16a123,123,0,0,0,14.82-14.14c2.11-2.28-1.61-6.83-3.68-4.59-6.23,6.74-12.71,13.23-20.54,18.11-4.49,2.81-24.1,16.7-27.82,9-1.49-3.11-6.18-1.84-4.51,1.62Z"/><text class="cls-3" transform="translate(190.46 367.38) scale(1.1 0.9)">B<tspan class="cls-4" x="19.76" y="0">A</tspan><tspan x="40.46" y="0">K</tspan><tspan class="cls-5" x="60.22" y="0">E</tspan><tspan x="80.46" y="0">RY</tspan></text><path class="cls-1" d="M491.47,254.36a20.25,20.25,0,0,0-1.67,4.41c-3.53,26-16.77,45.74-38.53,59.82-5.72,3.7-8.09,7.56-6,14.7,2.17,7.52-2.64,13.63-11,14.64a136.87,136.87,0,0,1-19.33.44c-10.39-.24-18.15,4-23.47,12.91-3.6,6-6.77,12.32-10.82,18-11.34,15.91-26.45,25.27-46.47,24.23-5.19-.26-10.18-3.18-15.4-4-3.57-.56-9.4-1-10.75.93-11.31,16.23-27.74,23.18-46,27.35H237.81c-3.08-.77-6.19-1.42-9.23-2.33-13.19-3.92-24.87-10.21-33-21.83-3.21-4.58-6.79-7.31-12.91-4.95-26.59,10.27-50.92,1.7-65.49-22.92-2.75-4.64-5.14-9.48-7.83-14.16-6.17-10.75-15.46-15.17-27.73-14a83.27,83.27,0,0,1-15.3.34c-9.11-.78-13.5-6.59-11.36-15.62,1.59-6.69-.46-11-6.05-14.19-52.81-30-55.12-118.6,6.94-150.1C61,165.46,62.59,162,62,156.34c-1.38-13.06,2.75-18.29,15.37-15.06,24.43,6.24,38.77-4.43,50.12-24.39,7.24-12.73,19-20.36,33.43-23.48,10.27-2.23,20.38-2.2,29.56,3.9,6.84,4.56,12.62,3.42,17.67-2.8,16-19.71,36.92-23.22,59.66-16.31,8.24,2.5,16,8.47,22.43,14.55,8.69,8.26,10.27,9.38,20.73,3.84,12.4-6.57,25-5.62,37.33-.16A60,60,0,0,1,376.71,122c10,17.64,23.71,24.5,43.74,19.24,12.45-3.27,21.4,2.11,18.15,16.68-.55,2.5,1.69,7.35,4,8.53,27.23,14.1,42.08,36.87,47.62,66.49.14.71.84,1.32,1.28,2Zm-61.94-89.84c2.1-13.47-2.23-17.64-14.27-16.66-2.93.23-5.83.94-8.74,1.44-13.23,2.27-23.84-1.36-31.16-13.29a95.27,95.27,0,0,0-9.65-13c-17.55-20-37.56-24.59-61.48-14-5.92,2.63-9.27-.18-13.49-3.66-6.5-5.38-13.11-11.87-20.8-14.33-22.76-7.29-44.16-5-61,14.64-3.67,4.31-7.79,5.77-13.55,3.12-24-11.07-48.55-4.11-63.6,17.69-2.61,3.77-5.12,7.61-7.84,11.29-6.82,9.23-15.83,13.46-27.37,11.84C91.57,149,86.5,148,81.43,147.9c-9.05-.17-14,5.08-12.25,13.72,1.34,6.65-1,9.53-6.66,12.54C35.91,188.36,21,211.22,19.6,241.05c-1.39,30.11,9.43,55.57,36.33,72,5.28,3.23,8.47,6.48,6.76,13.64-2,8.42,2.82,14.19,11.52,14.88a127.62,127.62,0,0,0,16.93-.17c10.76-.6,18.73,3.74,24.13,13,3.12,5.36,6,10.93,9.5,16,14.64,20.79,37.28,27.4,61.06,18.73,2.73-1,8.13.09,9.74,2.18,12.3,16,28.85,23.1,48.26,24,19.78.88,39.38-1.41,53.71-16.7,7.7-8.21,13.29-11,25-7.11,19.59,6.57,36.34-2.25,49.59-17.08,4.61-5.15,8-11.47,11.53-17.51,5.61-9.66,13.19-15.27,24.87-14.67a98.75,98.75,0,0,0,18.51-.77c6.61-.93,12-5.56,10.37-12-2.42-9.76,2.91-13.3,9.31-17.92,49.56-35.76,44.42-109-9.33-137.94C434.11,171.78,432.12,167.59,429.53,164.52Z"/><path class="cls-6" d="M174.9,322.71C216.82,325.36,261,321.94,300,305c2.31-1,.3-3.3-1.69-2.44-37.94,16.48-81.25,19.8-122.11,17.21-1.93-.12-3.75,2.74-1.26,2.9Z"/><path class="cls-7" d="M302.75,311l9.32.22c2.2.06,2.87-2.87.36-2.93l-9.32-.22c-2.2-.05-2.87,2.87-.36,2.93Z"/><path class="cls-7" d="M294.46,319.92a70,70,0,0,0-13.76-4.07c-1.85-.36-2.24,3.45-.35,3.82a66.18,66.18,0,0,1,13,3.86c1.89.8,2.79-2.9,1.1-3.61Z"/><path class="cls-7" d="M243.35,306.62l-4.23,4.49a2.39,2.39,0,0,0-.36,2.69,1.23,1.23,0,0,0,2,.27l4.23-4.49a2.39,2.39,0,0,0,.36-2.69,1.23,1.23,0,0,0-2-.27Z"/><path class="cls-7" d="M265.43,324l-8.52-2.15c-2-.5-4,2.27-1.52,2.9l8.52,2.14c2,.5,4-2.26,1.52-2.89Z"/><path class="cls-7" d="M216.39,307.19l-6.83,7.33c-1.23,1.32.71,4.49,2.22,2.85l6.83-7.33c1.23-1.32-.7-4.48-2.22-2.85Z"/><path class="cls-7" d="M231.7,330.49l-15-5.05c-1.68-.57-1.94,2.77-.41,3.28l15,5.06c1.68.57,1.94-2.77.41-3.29Z"/><path class="cls-7" d="M287.8,296.31,285,300.1a2.25,2.25,0,0,0,.19,2.66c.72.71,1.55.23,2-.44l2.79-3.79a2.24,2.24,0,0,0-.19-2.66c-.72-.71-1.54-.23-2,.44Z"/><path class="cls-7" d="M266.63,302.46,262.19,309c-1.34,2,2.18,2.59,3.22,1.05l4.44-6.52c1.34-2-2.18-2.59-3.22-1.06Z"/><path class="cls-7" d="M305,301.47a27.92,27.92,0,0,1,5.63-2.25,10.77,10.77,0,0,1,6.21.18c.64.24,1.43.54,1.94.18s.32-1.05.18-1.62a6.46,6.46,0,0,1,1.31-5.23,22.61,22.61,0,0,1,4.19-4l-.16-.24a27.12,27.12,0,0,1-5.65,2.45,10.28,10.28,0,0,1-6.28-.13c-.61-.24-1.36-.55-1.9-.22s-.39,1-.28,1.6a6.66,6.66,0,0,1-1.37,5,23.63,23.63,0,0,1-4,4Z"/><path class="cls-7" d="M304.61,286.08c1.39,0,4.92-2.08,1.91-2.08-1.4,0-4.93,2.08-1.91,2.08Z"/><path class="cls-7" d="M329.93,286.42c1.58,0,4.87-2.37,1.83-2.37-1.58,0-4.87,2.37-1.83,2.37Z"/><path class="cls-7" d="M326.58,306.08c2.62,0,3.48-3.37.4-3.37-2.62,0-3.48,3.37-.4,3.37Z"/></g></svg>